<svg xmlns="http://www.w3.org/2000/svg" width="1600" height="980" viewBox="0 0 1600 980" fill="none">
  <defs>
    <linearGradient id="bg" x1="0" y1="0" x2="1600" y2="980" gradientUnits="userSpaceOnUse">
      <stop stop-color="#F6F3EC"/>
      <stop offset="1" stop-color="#FBF7F1"/>
    </linearGradient>
    <filter id="shadow" x="0" y="0" width="2000" height="1200" filterUnits="userSpaceOnUse" color-interpolation-filters="sRGB">
      <feDropShadow dx="0" dy="16" stdDeviation="18" flood-color="#173337" flood-opacity="0.10"/>
    </filter>
  </defs>
  <rect width="1600" height="980" fill="url(#bg)"/>

  <text x="76" y="90" font-family="Segoe UI, Arial, sans-serif" font-size="28" font-weight="700" fill="#153236">Time Series Clustering</text>
  <text x="76" y="124" font-family="Segoe UI, Arial, sans-serif" font-size="17" fill="#567074">UI design sketch for the guided clustering workspace</text>

  <g filter="url(#shadow)">
    <rect x="56" y="160" width="1488" height="760" rx="28" fill="#FFFDF8" stroke="#E3D8C8"/>
  </g>

  <g>
    <rect x="80" y="198" width="300" height="684" rx="24" fill="#F9F3E8" stroke="#E3D8C8"/>
    <text x="110" y="245" font-family="Segoe UI, Arial, sans-serif" font-size="20" font-weight="700" fill="#183337">Controls</text>
    <text x="110" y="282" font-family="Segoe UI, Arial, sans-serif" font-size="16" fill="#54666B">Country series</text>
    <rect x="110" y="300" width="240" height="78" rx="18" fill="#FFFDF9" stroke="#DCCFBE"/>
    <text x="130" y="333" font-family="Segoe UI, Arial, sans-serif" font-size="15" fill="#204145">China   India   Malaysia</text>
    <text x="130" y="360" font-family="Segoe UI, Arial, sans-serif" font-size="15" fill="#204145">Australia   Philippines</text>

    <text x="110" y="420" font-family="Segoe UI, Arial, sans-serif" font-size="16" fill="#54666B">Focus market</text>
    <rect x="110" y="438" width="240" height="56" rx="18" fill="#FFFDF9" stroke="#DCCFBE"/>
    <text x="130" y="472" font-family="Segoe UI, Arial, sans-serif" font-size="16" fill="#204145">China</text>
    <path d="M320 461 L338 461 L329 474 Z" fill="#5A6A6F"/>

    <text x="110" y="536" font-family="Segoe UI, Arial, sans-serif" font-size="16" fill="#54666B">Year window</text>
    <line x1="122" y1="590" x2="338" y2="590" stroke="#7A8A8E" stroke-width="3"/>
    <circle cx="138" cy="590" r="12" fill="#0F6B6F"/>
    <circle cx="332" cy="590" r="12" fill="#0F6B6F"/>
    <rect x="112" y="552" width="52" height="30" rx="10" fill="#0F6B6F"/><text x="124" y="573" font-family="Segoe UI, Arial, sans-serif" font-size="14" font-weight="700" fill="#FFF">2017</text>
    <rect x="302" y="552" width="52" height="30" rx="10" fill="#0F6B6F"/><text x="314" y="573" font-family="Segoe UI, Arial, sans-serif" font-size="14" font-weight="700" fill="#FFF">2025</text>

    <text x="110" y="648" font-family="Segoe UI, Arial, sans-serif" font-size="16" fill="#54666B">Normalization</text>
    <rect x="110" y="668" width="240" height="116" rx="18" fill="#FFFDF9" stroke="#DCCFBE"/>
    <circle cx="134" cy="704" r="10" fill="#0F6B6F"/><circle cx="134" cy="738" r="10" fill="#FFF" stroke="#7E8C90" stroke-width="2"/><circle cx="134" cy="772" r="10" fill="#FFF" stroke="#7E8C90" stroke-width="2"/>
    <text x="156" y="709" font-family="Segoe UI, Arial, sans-serif" font-size="15" fill="#204145">Indexed (base 100)</text>
    <text x="156" y="743" font-family="Segoe UI, Arial, sans-serif" font-size="15" fill="#204145">Z-score</text>
    <text x="156" y="777" font-family="Segoe UI, Arial, sans-serif" font-size="15" fill="#204145">Raw arrivals</text>

    <text x="110" y="828" font-family="Segoe UI, Arial, sans-serif" font-size="16" fill="#54666B">Clusters</text>
    <line x1="124" y1="854" x2="338" y2="854" stroke="#7A8A8E" stroke-width="3"/>
    <circle cx="214" cy="854" r="12" fill="#0F6B6F"/>
    <rect x="202" y="812" width="24" height="28" rx="8" fill="#0F6B6F"/><text x="210" y="831" font-family="Segoe UI, Arial, sans-serif" font-size="14" font-weight="700" fill="#FFF">3</text>
  </g>

  <g>
    <rect x="412" y="198" width="1098" height="74" rx="22" fill="#FFF8EF" stroke="#E3D8C8"/>
    <g font-family="Segoe UI, Arial, sans-serif" font-size="16" font-weight="700">
      <rect x="432" y="212" width="132" height="44" rx="18" fill="#0F6B6F"/><text x="464" y="240" fill="#FFF">Dashboard</text>
      <text x="592" y="240" fill="#355055">Pattern Explorer</text>
      <text x="764" y="240" fill="#355055">Recovery Map</text>
      <text x="930" y="240" fill="#355055">Focus Market</text>
      <text x="1096" y="240" fill="#355055">Membership</text>
      <text x="1230" y="240" fill="#355055">Cluster Summary</text>
      <text x="1404" y="240" fill="#355055">Series Metrics</text>
    </g>
  </g>

  <g>
    <rect x="432" y="300" width="526" height="138" rx="24" fill="#FFFDF8" stroke="#E3D8C8"/>
    <text x="458" y="334" font-family="Segoe UI, Arial, sans-serif" font-size="18" font-weight="700" fill="#183337">Cluster Quality</text>
    <rect x="458" y="354" width="470" height="20" rx="10" fill="#E1F0EC"/>
    <rect x="458" y="354" width="278" height="20" rx="10" fill="#0F6B6F"/>
    <text x="458" y="406" font-family="Segoe UI, Arial, sans-serif" font-size="16" fill="#53656A">Selected k: 3   |   Mean silhouette: 0.29   |   Window: 2017 to 2025</text>

    <rect x="984" y="300" width="526" height="138" rx="24" fill="#FFFDF8" stroke="#E3D8C8"/>
    <text x="1010" y="334" font-family="Segoe UI, Arial, sans-serif" font-size="18" font-weight="700" fill="#183337">Insight Card</text>
    <text x="1010" y="372" font-family="Segoe UI, Arial, sans-serif" font-size="16" fill="#45575C">Focus market: China</text>
    <text x="1010" y="400" font-family="Segoe UI, Arial, sans-serif" font-size="16" fill="#45575C">Current placement: delayed recovery cluster</text>
    <text x="1010" y="428" font-family="Segoe UI, Arial, sans-serif" font-size="16" fill="#45575C">Closest peers and end-window position shown on the right.</text>
  </g>

  <g>
    <rect x="432" y="468" width="700" height="238" rx="24" fill="#FFFDF8" stroke="#E3D8C8"/>
    <text x="458" y="502" font-family="Segoe UI, Arial, sans-serif" font-size="18" font-weight="700" fill="#183337">Pattern Atlas</text>
    <rect x="470" y="528" width="624" height="142" rx="18" fill="#F3FAF8"/>
    <path d="M492 630 C560 540, 620 600, 690 560 S820 650, 900 590 S1010 560, 1068 610" stroke="#0F6B6F" stroke-width="5" fill="none"/>
    <path d="M492 660 C566 680, 628 620, 704 636 S834 554, 910 610 S1012 648, 1068 628" stroke="#7FD5D1" stroke-width="5" fill="none" opacity="0.95"/>
    <text x="470" y="690" font-family="Segoe UI, Arial, sans-serif" font-size="14" fill="#5B6A6F">Representative trajectories by recovery shape</text>

    <rect x="1150" y="468" width="360" height="238" rx="24" fill="#FFFDF8" stroke="#E3D8C8"/>
    <text x="1176" y="502" font-family="Segoe UI, Arial, sans-serif" font-size="18" font-weight="700" fill="#183337">Cluster Profile</text>
    <line x1="1194" y1="560" x2="1468" y2="560" stroke="#D5CCC0" stroke-width="2"/>
    <line x1="1194" y1="618" x2="1468" y2="618" stroke="#D5CCC0" stroke-width="2"/>
    <line x1="1194" y1="676" x2="1468" y2="676" stroke="#D5CCC0" stroke-width="2"/>
    <circle cx="1318" cy="560" r="10" fill="#0F6B6F"/>
    <circle cx="1388" cy="618" r="10" fill="#7FD5D1"/>
    <circle cx="1260" cy="676" r="10" fill="#D9996B"/>
    <text x="1194" y="542" font-family="Segoe UI, Arial, sans-serif" font-size="14" fill="#5C6B6F">Cluster 1</text>
    <text x="1194" y="600" font-family="Segoe UI, Arial, sans-serif" font-size="14" fill="#5C6B6F">Cluster 2</text>
    <text x="1194" y="658" font-family="Segoe UI, Arial, sans-serif" font-size="14" fill="#5C6B6F">Cluster 3</text>
  </g>

  <g>
    <rect x="432" y="736" width="526" height="146" rx="24" fill="#FFFDF8" stroke="#E3D8C8"/>
    <text x="458" y="770" font-family="Segoe UI, Arial, sans-serif" font-size="18" font-weight="700" fill="#183337">Recovery Position Map</text>
    <rect x="470" y="790" width="450" height="56" rx="18" fill="#F3FAF8"/>
    <circle cx="612" cy="822" r="12" fill="#0F6B6F"/>
    <circle cx="712" cy="812" r="12" fill="#7FD5D1"/>
    <circle cx="822" cy="830" r="12" fill="#D9996B"/>
    <text x="470" y="864" font-family="Segoe UI, Arial, sans-serif" font-size="14" fill="#5B6A6F">Low point on x-axis, end-window level on y-axis</text>

    <rect x="984" y="736" width="526" height="146" rx="24" fill="#FFFDF8" stroke="#E3D8C8"/>
    <text x="1010" y="770" font-family="Segoe UI, Arial, sans-serif" font-size="18" font-weight="700" fill="#183337">Silhouette Scan</text>
    <path d="M1036 836 C1090 780, 1162 798, 1210 820 S1326 856, 1462 828" stroke="#0F6B6F" stroke-width="4" fill="none"/>
    <circle cx="1102" cy="800" r="8" fill="#FFF" stroke="#0F6B6F" stroke-width="3"/>
    <circle cx="1210" cy="820" r="8" fill="#FFF" stroke="#0F6B6F" stroke-width="3"/>
    <circle cx="1364" cy="844" r="8" fill="#FFF" stroke="#0F6B6F" stroke-width="3"/>
    <text x="1036" y="864" font-family="Segoe UI, Arial, sans-serif" font-size="14" fill="#5B6A6F">Diagnostic for selected k before deeper inspection</text>
  </g>
</svg>
